name ./resultDataOpenSim/trcMotMarkerGrf/sub06/grf-12-02.mot
datacolumns 19
datarows 25
range 0.48000000 0.57600000
endheader

                time	     ground_force_vx	     ground_force_vy	     ground_force_vz	     ground_force_px	     ground_force_py	     ground_force_pz	   l_ground_force_vx	   l_ground_force_vy	   l_ground_force_vz	   l_ground_force_px	   l_ground_force_py	   l_ground_force_pz	     ground_torque_x	     ground_torque_y	     ground_torque_z	   l_ground_torque_x	   l_ground_torque_y	   l_ground_torque_z	
          0.48000000	        130.94143808	        718.87819153	        -37.13078101	         -0.70504537	          0.00000000	          0.09239807	          0.00000000	          0.00000000	          0.00000000	          0.00000000	          0.00000000	          0.00000000	          0.00000000	          0.97935916	          0.00000000	          0.00000000	          0.00000000	          0.00000000	
          0.48400000	        138.94681040	        739.84368665	        -37.51052285	         -0.70456492	          0.00000000	          0.09227306	          0.00000000	          0.00000000	          0.00000000	          0.00000000	          0.00000000	          0.00000000	          0.00000000	          1.07619702	          0.00000000	          0.00000000	          0.00000000	          0.00000000	
          0.48800000	        146.99805920	        759.91219112	        -38.22637163	         -0.70401583	          0.00000000	          0.09218778	          0.00000000	          0.00000000	          0.00000000	          0.00000000	          0.00000000	          0.00000000	          0.00000000	          1.14021379	          0.00000000	          0.00000000	          0.00000000	          0.00000000	
          0.49200000	        155.20764862	        779.04578954	        -39.24093587	         -0.70353572	          0.00000000	          0.09209423	          0.00000000	          0.00000000	          0.00000000	          0.00000000	          0.00000000	          0.00000000	          0.00000000	          1.16679004	          0.00000000	          0.00000000	          0.00000000	          0.00000000	
          0.49600000	        163.66549011	        796.93205988	        -40.49029244	         -0.70316771	          0.00000000	          0.09198187	          0.00000000	          0.00000000	          0.00000000	          0.00000000	          0.00000000	          0.00000000	          0.00000000	          1.15631225	          0.00000000	          0.00000000	          0.00000000	          0.00000000	
          0.50000000	        172.42423359	        812.94894927	        -41.90021329	         -0.70278878	          0.00000000	          0.09190515	          0.00000000	          0.00000000	          0.00000000	          0.00000000	          0.00000000	          0.00000000	          0.00000000	          1.11339111	          0.00000000	          0.00000000	          0.00000000	          0.00000000	
          0.50400000	        181.47387597	        826.57624286	        -43.36539720	         -0.70221719	          0.00000000	          0.09192500	          0.00000000	          0.00000000	          0.00000000	          0.00000000	          0.00000000	          0.00000000	          0.00000000	          1.04590552	          0.00000000	          0.00000000	          0.00000000	          0.00000000	
          0.50800000	        190.73206898	        837.82684052	        -44.75535483	         -0.70148383	          0.00000000	          0.09200239	          0.00000000	          0.00000000	          0.00000000	          0.00000000	          0.00000000	          0.00000000	          0.00000000	          0.96363212	          0.00000000	          0.00000000	          0.00000000	          0.00000000	
          0.51200000	        200.09035125	        847.10313722	        -45.97368832	         -0.70082734	          0.00000000	          0.09203706	          0.00000000	          0.00000000	          0.00000000	          0.00000000	          0.00000000	          0.00000000	          0.00000000	          0.87605770	          0.00000000	          0.00000000	          0.00000000	          0.00000000	
          0.51600000	        209.43581815	        854.57490966	        -47.00061411	         -0.70041232	          0.00000000	          0.09197750	          0.00000000	          0.00000000	          0.00000000	          0.00000000	          0.00000000	          0.00000000	          0.00000000	          0.78983235	          0.00000000	          0.00000000	          0.00000000	          0.00000000	
          0.52000000	        218.58452262	        859.83397497	        -47.84991061	         -0.70012098	          0.00000000	          0.09187493	          0.00000000	          0.00000000	          0.00000000	          0.00000000	          0.00000000	          0.00000000	          0.00000000	          0.70716134	          0.00000000	          0.00000000	          0.00000000	          0.00000000	
          0.52400000	        227.24741051	        862.24646512	        -48.50949579	         -0.69968530	          0.00000000	          0.09181370	          0.00000000	          0.00000000	          0.00000000	          0.00000000	          0.00000000	          0.00000000	          0.00000000	          0.62599325	          0.00000000	          0.00000000	          0.00000000	          0.00000000	
          0.52800000	        235.15170679	        861.55298390	        -48.95547852	         -0.69900292	          0.00000000	          0.09180941	          0.00000000	          0.00000000	          0.00000000	          0.00000000	          0.00000000	          0.00000000	          0.00000000	          0.54153145	          0.00000000	          0.00000000	          0.00000000	          0.00000000	
          0.53200000	        242.19936604	        858.00772948	        -49.19333449	         -0.69822654	          0.00000000	          0.09179867	          0.00000000	          0.00000000	          0.00000000	          0.00000000	          0.00000000	          0.00000000	          0.00000000	          0.44787170	          0.00000000	          0.00000000	          0.00000000	          0.00000000	
          0.53600000	        248.45457983	        851.95320522	        -49.25232860	         -0.69756520	          0.00000000	          0.09171585	          0.00000000	          0.00000000	          0.00000000	          0.00000000	          0.00000000	          0.00000000	          0.00000000	          0.33910158	          0.00000000	          0.00000000	          0.00000000	          0.00000000	
          0.54000000	        253.98834100	        843.37056987	        -49.14764094	         -0.69704880	          0.00000000	          0.09156485	          0.00000000	          0.00000000	          0.00000000	          0.00000000	          0.00000000	          0.00000000	          0.00000000	          0.21016132	          0.00000000	          0.00000000	          0.00000000	          0.00000000	
          0.54400000	        258.79615978	        831.90815578	        -48.85789079	         -0.69651790	          0.00000000	          0.09140992	          0.00000000	          0.00000000	          0.00000000	          0.00000000	          0.00000000	          0.00000000	          0.00000000	          0.05796876	          0.00000000	          0.00000000	          0.00000000	          0.00000000	
          0.54800000	        262.87192456	        817.31350766	        -48.33043329	         -0.69584343	          0.00000000	          0.09129816	          0.00000000	          0.00000000	          0.00000000	          0.00000000	          0.00000000	          0.00000000	          0.00000000	         -0.11739960	          0.00000000	          0.00000000	          0.00000000	          0.00000000	
          0.55200000	        266.29253626	        799.74373054	        -47.49996777	         -0.69510850	          0.00000000	          0.09120619	          0.00000000	          0.00000000	          0.00000000	          0.00000000	          0.00000000	          0.00000000	          0.00000000	         -0.31230707	          0.00000000	          0.00000000	          0.00000000	          0.00000000	
          0.55600000	        269.16554238	        779.59177385	        -46.30445901	         -0.69453694	          0.00000000	          0.09106907	          0.00000000	          0.00000000	          0.00000000	          0.00000000	          0.00000000	          0.00000000	          0.00000000	         -0.52044448	          0.00000000	          0.00000000	          0.00000000	          0.00000000	
          0.56000000	        271.49610450	        757.02464913	        -44.68751228	         -0.69426554	          0.00000000	          0.09085367	          0.00000000	          0.00000000	          0.00000000	          0.00000000	          0.00000000	          0.00000000	          0.00000000	         -0.73453722	          0.00000000	          0.00000000	          0.00000000	          0.00000000	
          0.56400000	        273.12687215	        731.73888144	        -42.59753917	         -0.69421914	          0.00000000	          0.09059731	          0.00000000	          0.00000000	          0.00000000	          0.00000000	          0.00000000	          0.00000000	          0.00000000	         -0.94779955	          0.00000000	          0.00000000	          0.00000000	          0.00000000	
          0.56800000	        273.78244253	        703.18808193	        -40.00512493	         -0.69421333	          0.00000000	          0.09037274	          0.00000000	          0.00000000	          0.00000000	          0.00000000	          0.00000000	          0.00000000	          0.00000000	         -1.15437212	          0.00000000	          0.00000000	          0.00000000	          0.00000000	
          0.57200000	        273.14322240	        671.01006858	        -36.92380793	         -0.69417168	          0.00000000	          0.09021656	          0.00000000	          0.00000000	          0.00000000	          0.00000000	          0.00000000	          0.00000000	          0.00000000	         -1.34875036	          0.00000000	          0.00000000	          0.00000000	          0.00000000	
          0.57600000	        270.88520252	        635.16796054	        -33.40370715	         -0.69421663	          0.00000000	          0.09010274	          0.00000000	          0.00000000	          0.00000000	          0.00000000	          0.00000000	          0.00000000	          0.00000000	         -1.52465889	          0.00000000	          0.00000000	          0.00000000	          0.00000000	
